<svg xmlns="http://www.w3.org/2000/svg" xmlns:xlink="http://www.w3.org/1999/xlink" width="252.205" height="52.88" viewBox="0 0 252.205 52.88">
  <defs>
    <linearGradient id="linear-gradient" x1="-0.013" y1="0.5" x2="0.991" y2="0.5" gradientUnits="objectBoundingBox">
      <stop offset="0" stop-color="#00fbff"/>
      <stop offset="1" stop-color="#9000ff"/>
    </linearGradient>
  </defs>
  <g id="logo" transform="translate(-73.3 -58.1)">
    <g id="Group_1760" data-name="Group 1760" transform="translate(151.188 70.542)">
      <path id="Path_2072" data-name="Path 2072" d="M65.307,223.221a12.938,12.938,0,0,1,0-17.923,11.942,11.942,0,0,1,8.852-3.5,12.5,12.5,0,0,1,7.213,2.186A10.744,10.744,0,0,1,85.744,210h-7.1a4.729,4.729,0,0,0-4.481-2.732,6.1,6.1,0,0,0-4.809,1.967,8.419,8.419,0,0,0,0,10.273,6.1,6.1,0,0,0,4.809,1.967,4.664,4.664,0,0,0,4.481-2.732h7.1a11.7,11.7,0,0,1-4.372,6.011,12.651,12.651,0,0,1-16.066-1.53Z" transform="translate(-61.7 -200.816)" fill="#292b30"/>
      <path id="Path_2073" data-name="Path 2073" d="M88.951,223.658a10.291,10.291,0,0,1,0-14.426,10.557,10.557,0,0,1,7.213-2.732,10.069,10.069,0,0,1,7.213,2.732,9.155,9.155,0,0,1,2.951,7.213,9.8,9.8,0,0,1-2.842,7.213,11.032,11.032,0,0,1-14.536,0Zm10.055-3.607a6.011,6.011,0,0,0,0-7.213,3.576,3.576,0,0,0-2.842-1.2,3.968,3.968,0,0,0-2.842,1.2,6.011,6.011,0,0,0,0,7.213,3.8,3.8,0,0,0,2.951,1.2A3.506,3.506,0,0,0,99.005,220.052Z" transform="translate(-59.443 -200.38)" fill="#292b30"/>
      <path id="Path_2074" data-name="Path 2074" d="M108.1,226.692V200.9H114v25.792Z" transform="translate(-57.39 -200.9)" fill="#292b30"/>
      <path id="Path_2075" data-name="Path 2075" d="M118.3,226.692V200.9h5.9v25.792Z" transform="translate(-56.442 -200.9)" fill="#292b30"/>
      <path id="Path_2076" data-name="Path 2076" d="M136.927,226.391a9.387,9.387,0,0,1-6.995-2.732,9.722,9.722,0,0,1-2.732-7.213,9.372,9.372,0,0,1,9.727-9.945,10.011,10.011,0,0,1,7.1,2.623,9.71,9.71,0,0,1,2.842,7.322,10,10,0,0,1-.109,1.858H133.43a3.131,3.131,0,0,0,1.2,2.077,3.066,3.066,0,0,0,2.076.765,5.325,5.325,0,0,0,1.639-.219,2.347,2.347,0,0,0,.765-.437,2.371,2.371,0,0,0,.656-.765h6.448a8.13,8.13,0,0,1-3.388,4.7A10.066,10.066,0,0,1,136.927,226.391ZM139.44,212.4a3.9,3.9,0,0,0-2.514-.874,3.6,3.6,0,0,0-2.4.874,3.377,3.377,0,0,0-1.2,2.186h7.322A3.659,3.659,0,0,0,139.44,212.4Z" transform="translate(-55.615 -200.38)" fill="#292b30"/>
      <path id="Path_2077" data-name="Path 2077" d="M150.032,223.658a10.171,10.171,0,0,1-2.732-7.213,9.394,9.394,0,0,1,2.732-7.213,9.643,9.643,0,0,1,6.995-2.732,9.784,9.784,0,0,1,6.011,1.749,8.532,8.532,0,0,1,3.279,5.027h-6.448a2.729,2.729,0,0,0-2.732-1.749,3.247,3.247,0,0,0-2.842,1.311,5.747,5.747,0,0,0-.874,3.5,6.618,6.618,0,0,0,.874,3.5,3.178,3.178,0,0,0,2.732,1.311,3.833,3.833,0,0,0,1.749-.328,2.7,2.7,0,0,0,1.093-1.311h6.448a9.256,9.256,0,0,1-3.279,5.027,10.072,10.072,0,0,1-6.011,1.858A9.222,9.222,0,0,1,150.032,223.658Z" transform="translate(-53.748 -200.38)" fill="#292b30"/>
      <path id="Path_2078" data-name="Path 2078" d="M176.117,221.516h2.077v5.027h-3.06a7.654,7.654,0,0,1-5.027-1.421c-1.2-.984-1.749-2.623-1.749-4.918v-8.087H166.5V207.2h1.858v-4.7h5.9v4.7h3.934v4.918H174.26V220.2C174.26,220.97,174.915,221.516,176.117,221.516Z" transform="translate(-51.965 -200.751)" fill="#292b30"/>
      <path id="Path_2079" data-name="Path 2079" d="M196.7,226.581l-1.311-4.153H186.65l-1.311,4.153H179l8.525-24.481h7.213l8.415,24.481Zm-8.634-8.634h5.792l-2.842-8.743Z" transform="translate(-50.803 -200.789)" fill="#292b30"/>
      <path id="Path_2080" data-name="Path 2080" d="M209.6,217.073v9.508h-5.9V202.1h9.617a9.787,9.787,0,0,1,6.667,2.186,7.159,7.159,0,0,1,2.4,5.246,7.453,7.453,0,0,1-1.311,4.153,7.238,7.238,0,0,1-4.262,2.842l6.011,9.945h-6.995l-5.464-9.508H209.6Zm0-10.383v5.9h3.716a2.977,2.977,0,0,0,2.186-.765,2.721,2.721,0,0,0,.765-2.077,3.15,3.15,0,0,0-.765-2.186,2.8,2.8,0,0,0-2.076-.874Z" transform="translate(-48.509 -200.789)" fill="#292b30"/>
    </g>
    <g id="Group_1762" data-name="Group 1762" transform="translate(73.3 58.1)">
      <g id="Group_1761" data-name="Group 1761">
        <path id="Path_2081" data-name="Path 2081" d="M178.926,94.6l-9.326,9.326,9.326,9.326,9.373-9.326Z" transform="translate(-124.47 -77.495)" fill="url(#linear-gradient)"/>
        <path id="Path_2082" data-name="Path 2082" d="M109.1,93.857a13.222,13.222,0,1,1,0-18.7l7.123,7.123,9.326-9.326-7.123-7.123a26.444,26.444,0,1,0,0,37.4l7.123-7.123-9.326-9.326Z" transform="translate(-73.3 -58.1)" fill="#292b30"/>
      </g>
    </g>
  </g>
</svg>
